# Blender 4.4.3
# www.blender.org
mtllib balanceBase.mtl
o Plane
v 0.000000 0.100000 -0.000000
v 0.000000 -0.100000 -0.000000
v 0.000000 0.030000 0.100000
v 0.000000 -0.030000 0.100000
v -0.050000 0.100000 -0.000000
v -0.050000 -0.100000 -0.000000
v -0.050000 0.030000 0.100000
v -0.050000 -0.030000 0.100000
vn 1.0000 -0.0000 -0.0000
vn -1.0000 -0.0000 -0.0000
vn -0.0000 0.8192 0.5735
vn -0.0000 -0.0000 1.0000
vn -0.0000 -0.0000 -1.0000
vn -0.0000 -0.8192 0.5735
s 0
f 3//1 2//1 1//1
f 6//2 7//2 5//2
f 1//3 7//3 3//3
f 3//4 8//4 4//4
f 2//5 5//5 1//5
f 4//6 6//6 2//6
f 3//1 4//1 2//1
f 6//2 8//2 7//2
f 1//3 5//3 7//3
f 3//4 7//4 8//4
f 2//5 6//5 5//5
f 4//6 8//6 6//6
