# Blender 4.4.3
# www.blender.org
mtllib ramp.mtl
o Plane
v 0.000000 -0.300000 0.000000
v 0.000000 -0.600000 -0.100000
v 0.000000 -0.600000 0.000000
v 0.000000 -0.300000 0.000000
v 0.000000 -0.600000 0.000000
v 0.000000 -0.600000 -0.100000
v 0.100000 -0.600000 0.000000
v 0.100000 -0.300000 0.000000
v 0.100000 -0.600000 -0.100000
vn -1.0000 -0.0000 -0.0000
vn -0.0000 0.3162 -0.9487
vn 1.0000 -0.0000 -0.0000
vn -0.0000 -1.0000 -0.0000
vn -0.0000 -0.0000 1.0000
vt 0.333333 1.000000
vt 0.000000 1.000000
vt 0.000000 0.000000
s 0
f 2/1/1 5/2/1 4/3/1
f 1/3/1 2/1/1 4/3/1
f 1/3/2 9/1/2 6/1/2
f 6/1/1 5/2/1 2/1/1
f 3/2/1 4/3/1 5/2/1
f 9/1/3 8/3/3 7/2/3
f 6/1/4 7/2/4 3/2/4
f 3/2/5 8/3/5 1/3/5
f 1/3/1 6/1/1 2/1/1
f 1/3/2 8/3/2 9/1/2
f 6/1/1 3/2/1 5/2/1
f 3/2/1 1/3/1 4/3/1
f 6/1/4 9/1/4 7/2/4
f 3/2/5 7/2/5 8/3/5
